<svg width="1440" height="936" viewBox="0 0 1440 936" fill="none" xmlns="http://www.w3.org/2000/svg">
<path opacity="0.15" d="M0 57.5001L1440 57.5M0 257.5L1440 257.5M0 457.5L1440 457.5M0 657.5L1440 657.5M0 857.501L1440 857.5M0 1057.5L1440 1057.5M0 157.5L1440 157.5M0 357.5L1440 357.5M0 557.5L1440 557.5M0 757.501L1440 757.5M0 957.501L1440 957.501M0 1157.5L1440 1157.5M1120.5 -111L1120.5 1329M1420.5 -111L1420.5 1329M920.5 -111L920.501 1329M1220.5 -111L1220.5 1329M720.5 -111L720.501 1329M520.5 -111L520.501 1329M320.5 -111L320.501 1329M120.5 -111L120.5 1329M1020.5 -111L1020.5 1329M1320.5 -111L1320.5 1329M820.5 -111L820.501 1329M620.5 -111L620.501 1329M420.5 -111L420.501 1329M220.5 -111L220.5 1329M20.5 -111L20.5001 1329" stroke="#2A2A2A"/>
</svg>
