<svg width="488" height="343" viewBox="0 0 488 343" fill="none" xmlns="http://www.w3.org/2000/svg">
<path d="M79.0347 -189.824C332.794 111.392 -88.851 240.716 108.035 297.008C421.867 386.737 437.917 150.44 683.582 345.024" stroke="#F23F18" stroke-width="2"/>
<path d="M111.382 -206.6C365.141 94.616 -56.5034 223.94 140.383 280.233C454.215 369.961 470.264 133.664 715.93 328.248" stroke="#F23F18" stroke-width="2"/>
<path d="M143.73 -223.375C397.489 77.8401 -24.1557 207.165 172.73 263.457C486.563 353.185 502.612 116.889 748.277 311.472" stroke="#F23F18" stroke-width="2"/>
<path d="M176.078 -240.151C429.837 61.0645 8.19187 190.389 205.078 246.681C518.91 336.409 534.96 100.113 780.625 294.697" stroke="#F23F18" stroke-width="2"/>
<path d="M208.429 -256.927C462.188 44.2888 40.5436 173.613 237.43 229.905C551.261 319.634 567.311 83.3373 812.977 277.921" stroke="#F23F18" stroke-width="2"/>
<path d="M240.777 -273.702C494.536 27.5132 72.8912 156.838 269.777 213.13C583.609 302.858 599.659 66.5617 845.324 261.145" stroke="#F23F18" stroke-width="2"/>
<path d="M273.125 -290.478C526.884 10.7375 105.239 140.062 302.125 196.354C615.957 286.083 632.007 49.7861 877.672 244.37" stroke="#F23F18" stroke-width="2"/>
<path d="M305.472 -307.254C559.231 -6.03809 137.587 123.286 334.472 179.579C648.304 269.307 664.354 33.0104 910.02 227.594" stroke="#F23F18" stroke-width="2"/>
<path d="M337.82 -324.03C591.579 -22.8141 169.934 106.51 366.82 162.803C680.652 252.531 696.702 16.2344 942.367 210.818" stroke="#F23F18" stroke-width="2"/>
<path d="M370.168 -340.805C623.927 -39.5897 202.282 89.7347 399.168 146.027C713 235.756 729.05 -0.541203 974.715 194.042" stroke="#F23F18" stroke-width="2"/>
<path d="M402.515 -357.581C656.274 -56.3654 234.629 72.9591 431.515 129.251C745.348 218.98 761.397 -17.3168 1007.06 177.267" stroke="#F23F18" stroke-width="2"/>
<path d="M434.863 -374.357C688.622 -73.141 266.977 56.1835 463.863 112.476C777.696 202.204 793.745 -34.0925 1039.41 160.491" stroke="#F23F18" stroke-width="2"/>
<path d="M467.214 -391.132C720.973 -89.9166 299.329 39.4078 496.215 95.7C810.047 185.429 826.097 -50.8681 1071.76 143.715" stroke="#F23F18" stroke-width="2"/>
</svg>
