<svg width="40" height="40" viewBox="0 0 40 40" fill="none" xmlns="http://www.w3.org/2000/svg">
<circle cx="20" cy="20" r="12" fill="#FAFAFA"/>
<path d="M25.207 19.9997C25.207 21.381 24.6583 22.7058 23.6815 23.6825C22.7048 24.6593 21.38 25.208 19.9987 25.208C18.6174 25.208 17.2926 24.6593 16.3158 23.6825C15.3391 22.7058 14.7904 21.381 14.7904 19.9997C14.7904 19.7028 14.8216 19.4129 14.8754 19.1316H13.0543V26.0709C13.0543 26.5535 13.4449 26.9441 13.9275 26.9441H26.0716C26.3029 26.9437 26.5246 26.8514 26.688 26.6877C26.8514 26.524 26.9431 26.3022 26.9431 26.0709V19.1316H25.122C25.1758 19.4129 25.207 19.7028 25.207 19.9997ZM19.9987 23.4719C20.4548 23.4718 20.9064 23.3818 21.3277 23.2072C21.7491 23.0325 22.1319 22.7766 22.4543 22.454C22.7767 22.1315 23.0324 21.7485 23.2069 21.3271C23.3813 20.9057 23.471 20.454 23.4709 19.9979C23.4708 19.5418 23.3809 19.0902 23.2062 18.6689C23.0316 18.2476 22.7756 17.8648 22.4531 17.5423C22.1305 17.2199 21.7475 16.9642 21.3261 16.7898C20.9047 16.6153 20.4531 16.5256 19.997 16.5257C19.0758 16.5259 18.1925 16.8921 17.5414 17.5436C16.8902 18.1951 16.5245 19.0786 16.5247 19.9997C16.525 20.9208 16.8911 21.8041 17.5426 22.4553C18.1941 23.1064 19.0776 23.4721 19.9987 23.4719ZM24.1654 16.3538H26.247C26.3853 16.3538 26.5179 16.299 26.6159 16.2014C26.7138 16.1038 26.7691 15.9713 26.7695 15.833V13.7514C26.7695 13.6128 26.7145 13.4799 26.6165 13.3819C26.5185 13.2839 26.3856 13.2288 26.247 13.2288H24.1654C24.0268 13.2288 23.8939 13.2839 23.7959 13.3819C23.6978 13.4799 23.6428 13.6128 23.6428 13.7514V15.833C23.6445 16.1195 23.8789 16.3538 24.1654 16.3538ZM19.9987 3.33301C15.5784 3.33301 11.3392 5.08895 8.21358 8.21456C5.08798 11.3402 3.33203 15.5794 3.33203 19.9997C3.33203 24.4199 5.08798 28.6592 8.21358 31.7848C11.3392 34.9104 15.5784 36.6663 19.9987 36.6663C22.1874 36.6663 24.3547 36.2352 26.3768 35.3977C28.3988 34.5601 30.2362 33.3324 31.7838 31.7848C33.3315 30.2371 34.5591 28.3998 35.3967 26.3777C36.2343 24.3556 36.6654 22.1884 36.6654 19.9997C36.6654 17.811 36.2343 15.6437 35.3967 13.6216C34.5591 11.5995 33.3315 9.7622 31.7838 8.21456C30.2362 6.66692 28.3988 5.43926 26.3768 4.60168C24.3547 3.7641 22.1874 3.33301 19.9987 3.33301ZM28.6793 26.7514C28.6793 27.8122 27.8112 28.6802 26.7504 28.6802H13.247C12.1862 28.6802 11.3181 27.8122 11.3181 26.7514V13.2479C11.3181 12.1872 12.1862 11.3191 13.247 11.3191H26.7504C27.8112 11.3191 28.6793 12.1872 28.6793 13.2479V26.7514Z" fill="#363636"/>
</svg>
