<svg width="24" height="24" viewBox="0 0 24 24" fill="none" xmlns="http://www.w3.org/2000/svg">
<path d="M12.75 21.7497C12.6498 21.7498 12.5507 21.7297 12.4584 21.6908C12.3661 21.6519 12.2825 21.5949 12.2126 21.5231C12.1427 21.4514 12.0879 21.3664 12.0513 21.2731C12.0148 21.1798 11.9974 21.0802 12 20.98V12.3808C12 12.2814 11.9605 12.186 11.8902 12.1157C11.8198 12.0453 11.7245 12.0058 11.625 12.0058H3.01923C2.86148 12.0077 2.70702 11.9607 2.57703 11.8713C2.44703 11.782 2.34787 11.6546 2.29313 11.5066C2.2308 11.3302 2.23668 11.1368 2.30962 10.9645C2.38256 10.7921 2.51729 10.6533 2.68735 10.5752L20.6874 2.31817C20.8264 2.25445 20.9816 2.23477 21.1322 2.26179C21.2828 2.2888 21.4215 2.36121 21.5297 2.4693C21.638 2.57738 21.7106 2.71599 21.7378 2.86651C21.765 3.01704 21.7456 3.17229 21.682 3.31145L13.432 21.3114C13.3723 21.4422 13.2763 21.553 13.1553 21.6307C13.0344 21.7084 12.8937 21.7497 12.75 21.7497Z" fill="#444444"/>
</svg>
