<svg width="40" height="40" viewBox="0 0 40 40" fill="none" xmlns="http://www.w3.org/2000/svg">
<circle cx="20" cy="20" r="12" fill="#FAFAFA"/>
<path d="M19.9987 3.33301C10.7987 3.33301 3.33203 10.7997 3.33203 19.9997C3.33203 29.1997 10.7987 36.6663 19.9987 36.6663C29.1987 36.6663 36.6654 29.1997 36.6654 19.9997C36.6654 10.7997 29.1987 3.33301 19.9987 3.33301ZM27.732 14.6663C27.482 17.2997 26.3987 23.6997 25.8487 26.6497C25.6154 27.8997 25.1487 28.3163 24.7154 28.3663C23.7487 28.4497 23.0154 27.733 22.082 27.1163C20.6154 26.1497 19.782 25.5497 18.3654 24.6163C16.7154 23.533 17.782 22.933 18.732 21.9663C18.982 21.7163 23.2487 17.833 23.332 17.483C23.3436 17.43 23.3421 17.375 23.3275 17.3227C23.313 17.2704 23.286 17.2225 23.2487 17.183C23.1487 17.0997 23.0154 17.133 22.8987 17.1497C22.7487 17.183 20.4154 18.733 15.8654 21.7997C15.1987 22.2497 14.5987 22.483 14.0654 22.4663C13.4654 22.4497 12.332 22.133 11.482 21.8497C10.432 21.5163 9.61536 21.333 9.68203 20.7497C9.71536 20.4497 10.132 20.1497 10.9154 19.833C15.782 17.7163 19.0154 16.3163 20.632 15.6497C25.2654 13.7163 26.2154 13.383 26.8487 13.383C26.982 13.383 27.2987 13.4163 27.4987 13.583C27.6654 13.7163 27.7154 13.8997 27.732 14.033C27.7154 14.133 27.7487 14.433 27.732 14.6663Z" fill="#363636"/>
</svg>
