<svg width="40" height="40" viewBox="0 0 40 40" fill="none" xmlns="http://www.w3.org/2000/svg">
<circle cx="20" cy="20" r="12" fill="#FAFAFA"/>
<path d="M22.7817 19.7097L18.8824 17.8903C18.5421 17.7323 18.2626 17.9094 18.2626 18.2861V21.7132C18.2626 22.09 18.5421 22.267 18.8824 22.109L22.7799 20.2896C23.122 20.1299 23.122 19.8695 22.7817 19.7097ZM19.9987 3.33301C10.7938 3.33301 3.33203 10.7948 3.33203 19.9997C3.33203 29.2045 10.7938 36.6663 19.9987 36.6663C29.2036 36.6663 36.6654 29.2045 36.6654 19.9997C36.6654 10.7948 29.2036 3.33301 19.9987 3.33301ZM19.9987 26.7705C11.4674 26.7705 11.3181 26.0014 11.3181 19.9997C11.3181 13.9979 11.4674 13.2288 19.9987 13.2288C28.5299 13.2288 28.6793 13.9979 28.6793 19.9997C28.6793 26.0014 28.5299 26.7705 19.9987 26.7705Z" fill="#363636"/>
</svg>
